<svg xmlns="http://www.w3.org/2000/svg" viewBox="0 0 914 872" width="914" height="872">

<path d="M236.29 569C236.3 566 236.3 563 236.3 560C236.3 502.33 236.3 444.67 236.3 387C236.3 385.33 236.3 383.67 236.3 382C236.3 381.33 236.3 380.67 236.3 380C236.47 378.5 236.64 377 236.81 375.5C236.64 375.33 236.47 375.17 236.31 375C236.31 371.33 236.31 367.67 236.31 364C236.31 362 236.3 360 236.3 358C236.3 356.67 236.3 355.33 236.3 354C236.47 352.5 236.64 351 236.81 349.5C236.64 349.33 236.47 349.17 236.31 349C236.31 344.25 235.93 339.41 237.39 334.82C241.19 322.78 256.11 321.74 266.5 323.66C267.31 330.84 266.85 338.26 266.85 345.5C266.84 357.5 266.86 369.5 266.86 381.5C266.85 418.5 266.88 455.5 266.85 492.5C266.84 506.83 266.95 521.17 266.84 535.5C266.8 541.36 265.64 548.8 270.05 553.45C274.7 558.35 281.46 557.23 287.5 556.76C298.46 555.92 309.48 556.01 320.46 556.43C346.39 557.43 372.79 561.65 397.33 570.24C405.85 573.23 414.18 576.37 422.4 580.12C426.84 582.15 431.59 585.44 436.25 586.5C429.54 579.25 420.21 573.65 411.62 568.89C386.95 555.22 358.43 549.1 330.57 546.59C319.57 545.6 308.53 545.67 297.5 546.06C290.82 546.3 283.91 547.29 280.14 540.34C277.6 535.65 278.91 528.67 278.88 523.5C278.82 510.83 278.88 498.17 278.89 485.5C278.95 439.5 278.89 393.5 278.88 347.5C278.88 334.17 278.94 320.83 278.9 307.5C278.88 300.83 278.26 294.11 284.01 289.5C287.85 286.41 292.77 286.27 297.45 285.68C308.03 284.34 318.87 284.67 329.5 285.22C361.32 286.87 395.06 294.51 422.81 310.66C435.31 317.94 445.6 326.95 456.5 336.29C459.92 333.66 462.88 330.45 466.2 327.67C473.6 321.49 481.35 316.04 489.68 311.18C516.96 295.26 548.34 288.73 579.38 285.6C591.48 284.38 604.54 283.95 616.61 285.67C621.21 286.32 626.08 286.61 629.89 289.59C635.58 294.04 635.12 300.99 635.09 307.5C635.03 320.83 635.06 334.17 635.06 347.5C635.04 393.5 635.1 439.5 635.05 485.5C635.04 497.83 634.98 510.17 635.04 522.5C635.07 527.94 636.46 535.32 633.76 540.26C629.76 547.59 622.56 546.38 615.5 546.02C604.71 545.48 593.62 545.42 582.85 546.49C554.94 549.25 527 555.06 502.19 568.66C493.56 573.39 483.22 578.86 476.86 586.5C480.4 585.48 483.77 583.22 487.14 581.6C494.15 578.24 501.43 574.89 508.79 572.37C534.73 563.5 561.08 558.24 588.46 556.56C600.47 555.83 612.49 556.04 624.5 556.79C630.31 557.15 636.66 558.19 641.28 553.79C645.98 549.32 644.93 542.38 644.97 536.5C645.06 522.17 644.98 507.83 644.96 493.5C644.91 456.83 645.02 420.17 644.96 383.5C644.93 364.34 643.58 342.31 645.23 323.5C650 322.95 655.51 322.8 660.3 323.39C676.25 325.36 675.56 340.29 675.6 352.5C675.63 359.5 675.64 366.5 675.59 373.5C675.22 424.16 675.7 474.84 675.62 525.5C675.6 538.83 675.61 552.17 675.66 565.5C675.68 572.41 676.79 580.21 672.84 586.31C666.35 596.32 653.59 593.39 643.5 592.86C618.27 591.55 592.7 591.25 567.5 593.23C551.05 594.52 534.68 596.74 518.47 599.83C510.88 601.28 501.83 602.18 494.71 605.28C491.56 606.65 487.67 614.22 484.5 617.01C476.6 623.97 465.81 626.29 455.5 626.21C445.21 626.13 434.88 623.46 427.23 616.27C424.46 613.66 421.03 606.74 418.23 605.33C412.55 602.47 400.13 600.92 393.56 599.72C372.03 595.77 350.33 593.3 328.45 592.38C308.81 591.55 289.12 592.07 269.5 592.8C261.2 593.11 251.01 595.78 243.59 590.95C235.93 585.96 236.22 577.13 236.29 569ZM450.5 577.3C451.52 560.12 450.61 542.71 450.63 525.5C450.68 490.5 450.78 455.5 450.66 420.5C450.61 404.5 450.75 388.5 450.66 372.5C450.63 368 451.75 356.71 450.44 353.02C449.49 350.38 445.71 347.68 443.73 345.77C437.07 339.33 429.83 333.49 422.02 328.49C394.47 310.83 359.99 302.07 327.5 300.99C317.82 300.67 303.86 298.98 294.85 302.5C294.85 378.47 294.85 454.43 294.85 530.4C334.15 528.62 376.58 533.45 412.14 551.4C420.38 555.57 428.42 560.09 435.79 565.69C440.72 569.43 445.29 574.05 450.5 577.3ZM619.03 301.99C605.17 299.24 589.46 300.29 575.49 301.82C546.69 304.97 517.82 312.07 492.89 327.42C484.57 332.54 476.89 338.6 469.77 345.27C467.66 347.25 463.45 350.09 462.4 352.81C460.99 356.49 462.05 367.99 462.04 372.5C462.03 387.5 462.06 402.5 462.05 417.5C462.03 453.17 462.1 488.83 462.03 524.5C462 536.17 461.98 547.83 462.01 559.5C462.03 565.38 461.32 571.86 462.5 577.6C471.97 570.33 480.56 562.47 491.08 556.58C530.09 534.72 575 529.2 619.03 530.5C619.03 454.33 619.03 378.16 619.03 301.99Z" fill="#0f3062" fill-rule="evenodd" stroke="#0f3062" stroke-width="0.25" stroke-linejoin="round" data-index="1" style="opacity: 1; visibility: visible; fill: rgb(255, 255, 255);"></path>
<path d="M209.88 187.5C215.03 195.07 223.07 201.46 229.52 207.98C241.44 220.05 253.29 232.21 265.34 244.16C270.36 249.13 275.3 254.2 280.35 259.14C283.01 261.74 286.27 264.09 287.67 267.5C286.61 268.54 285.56 269.59 284.5 270.63C279.11 268.36 267.13 254.2 262.19 249.33C243.07 230.5 224.85 210.73 205.5 192.14C201.19 194.39 197.44 197.51 192.85 199.37C181.73 203.89 168.17 203.93 157.03 199.46C125.14 186.66 117.68 142.63 143.14 119.62C166.88 98.17 206.95 106.49 218.68 136.76C225.52 154.39 221.6 173.09 209.88 187.5ZM285.5 606.87C286.76 608.08 288.02 609.29 289.28 610.5C285.47 617.44 273.84 627.34 267.87 633.37C256.1 645.26 244.39 657.23 232.64 669.13C225.52 676.34 217 683.33 211.04 691.5C219.2 705.27 223.92 716.79 219.64 733.24C210.18 769.59 164.24 779.85 139.53 751.96C116.34 725.8 131.09 682.84 164.76 675.36C180.51 671.87 194.08 677.22 206.5 686.48C232.83 659.94 259.17 633.41 285.5 606.87Z" fill="#fda50e" fill-rule="evenodd" stroke="#fda50e" stroke-width="0.25" stroke-linejoin="round" data-index="2" style="opacity: 1; visibility: visible;"></path>
<path d="M460.19 108.5C460.11 155.83 460.05 203.17 460.15 250.5C460.17 262.5 460.05 274.5 460.15 286.5C460.18 290.94 461.48 297.46 458.5 300.92C452.19 300.67 454.04 295.58 454.05 290.5C454.07 279.17 454.07 267.83 454.08 256.5C454.13 207.17 454.47 157.82 454.07 108.5C450.63 107.46 446.97 107.15 443.52 106.01C430.7 101.75 420.67 92.68 415.1 80.39C402.37 52.3 422.7 15.67 454.5 14.87C489.31 14 513.55 49.07 498.83 81.31C493.61 92.74 483.26 101.86 471.36 105.81C467.7 107.02 463.84 107.41 460.19 108.5Z" fill="#54b446" fill-rule="evenodd" stroke="#54b446" stroke-width="0.25" stroke-linejoin="round" data-index="3" style="opacity: 1;"></path>
<path d="M704.88 187.5C678.48 157.54 697.92 109.02 738.5 108.09C744.26 107.96 750.15 108.87 755.55 110.9C761.06 112.97 766.26 115.91 770.6 119.91C797.45 144.65 788.61 189.64 753.27 200.69C742.74 203.98 730.7 203.38 720.59 198.88C716.62 197.11 713.34 194.3 709.5 192.37C683.17 218.54 656.83 244.71 630.5 270.88C629.32 269.76 628.14 268.63 626.96 267.5C652.93 240.83 678.9 214.17 704.88 187.5Z" fill="#fc5255" fill-rule="evenodd" stroke="#fc5255" stroke-width="0.25" stroke-linejoin="round" data-index="4" style="opacity: 1;"></path>
<path d="M236.31 349C236.47 349.17 236.64 349.33 236.81 349.5C236.64 351 236.47 352.5 236.3 354C236.3 352.33 236.3 350.67 236.31 349ZM236.3 358C236.3 360 236.31 362 236.31 364C236.31 362 236.3 360 236.3 358ZM236.31 375C236.47 375.17 236.64 375.33 236.81 375.5C236.64 377 236.47 378.5 236.3 380C236.3 378.33 236.31 376.67 236.31 375ZM236.3 382C236.3 383.67 236.3 385.33 236.3 387C236.3 385.33 236.3 383.67 236.3 382ZM236.3 560C236.3 563 236.3 566 236.29 569C236.3 566 236.3 563 236.3 560ZM628.5 607.01C654.83 633.42 681.17 659.84 707.5 686.26C721.54 676.98 731.54 671.55 749.25 675.35C784.4 682.89 796.88 729.22 771.78 754.27C766.83 759.21 761.26 762.79 754.72 765.27C722.18 777.63 689.79 749.97 692.95 716.5C693.8 707.45 697.14 698.44 703.13 691.5C677.05 664.5 650.96 637.5 624.88 610.5C626.09 609.34 627.29 608.17 628.5 607.01Z" fill="#2f73d9" fill-rule="evenodd" stroke="#2f73d9" stroke-width="0.25" stroke-linejoin="round" data-index="5" style="opacity: 1;"></path>
<path d="M811.24 441.5C802.81 439.34 792.28 440.85 783.5 440.85C765.17 440.85 746.83 440.81 728.5 440.82C723.91 440.83 708.29 441.99 704.96 440.49C703.17 439.68 703.4 438.08 703.22 436.5C705.8 433.91 709 434.56 712.5 434.55C718.83 434.53 725.17 434.61 731.5 434.61C757.84 434.59 784.21 434.93 810.54 434.5C811.61 430.91 811.97 427.16 813.11 423.56C816.92 411.61 824.91 401.38 836.15 395.61C868.3 379.09 903.72 404.66 902.55 439.44C901.57 468.57 872.39 488.9 844.69 481.72C825.86 476.83 813.7 460.19 811.24 441.5Z" fill="#805eb5" fill-rule="evenodd" stroke="#805eb5" stroke-width="0.25" stroke-linejoin="round" data-index="6"></path>
<path d="M98.5 434.08C107.51 435.97 118.25 434.56 127.5 434.54C145.17 434.48 162.84 434.73 180.5 434.59C187.17 434.54 193.83 434.61 200.5 434.58C203.88 434.57 207.28 433.78 209.58 436.5C209.47 438.05 209.71 439.62 208 440.46C205.99 441.44 202.68 440.82 200.5 440.82C194.83 440.82 189.17 440.81 183.5 440.81C155.26 440.82 126.69 439.54 98.5 440.95C95.22 457.13 87.69 471.22 72.14 478.62C40.92 493.46 6.77 469.18 7.47 435.56C8.09 405.54 39.48 382.01 68.35 393.16C87.12 400.42 95.26 415.17 98.5 434.08Z" fill="#28afc6" fill-rule="evenodd" stroke="#28afc6" stroke-width="0.25" stroke-linejoin="round" data-index="7" style="opacity: 1;"></path>
<path d="M458.5 656.91C460.95 659.84 460.17 663.74 460.13 667.5C460.05 674.5 460.17 681.5 460.17 688.5C460.17 707.5 460.15 726.5 460.19 745.5C460.21 755.24 459.36 765.36 460.5 775.02C477.91 779.14 489.89 784.46 497.77 801.74C511.6 832.06 488.81 866.85 455.5 866.13C424.5 865.46 403.55 832.24 415.14 803.63C421.79 787.21 436.34 777.56 453.5 775.08C455.43 765.13 454.09 753.68 454.07 743.5C454.03 723.83 454.02 704.17 454.06 684.5C454.08 678.17 454.08 671.83 454.07 665.5C454.06 663.49 453.38 659.74 454.53 658C455.52 656.51 457.04 657 458.5 656.91Z" fill="#f55c9f" fill-rule="evenodd" stroke="#f55c9f" stroke-width="0.25" stroke-linejoin="round" data-index="8" style="opacity: 1;"></path>
</svg>